<?xml version="1.0" standalone="no"?>
<!DOCTYPE svg PUBLIC "-//W3C//DTD SVG 20010904//EN"
 "http://www.w3.org/TR/2001/REC-SVG-20010904/DTD/svg10.dtd">
<svg version="1.0" xmlns="http://www.w3.org/2000/svg"
 width="900.000000pt" height="900.000000pt" viewBox="0 0 900.000000 900.000000"
 preserveAspectRatio="xMidYMid meet">
<metadata>
Created by potrace 1.14, written by Peter Selinger 2001-2017
</metadata>
<g transform="translate(0.000000,900.000000) scale(0.100000,-0.100000)"
fill="#000000" stroke="none">
<path d="M4157 8923 l-87 -54 -95 35 c-53 20 -102 36 -111 36 -9 0 -56 -28
-105 -62 l-89 -61 -72 21 c-144 41 -134 43 -227 -37 -45 -39 -84 -71 -85 -71
-10 0 -184 32 -199 36 -12 4 -39 -17 -94 -75 l-76 -81 -116 6 -116 7 -54 -69
c-85 -108 -78 -104 -200 -104 l-107 0 -61 -93 -62 -94 -84 -6 c-142 -11 -138
-9 -181 -93 -59 -115 -64 -119 -153 -133 -105 -17 -143 -30 -143 -47 0 -8 -5
-22 -10 -32 -6 -9 -23 -47 -39 -84 l-30 -67 -68 -20 c-37 -11 -86 -24 -108
-30 l-40 -11 -34 -105 -34 -105 -91 -35 c-50 -19 -98 -40 -106 -45 -8 -5 -26
-55 -40 -112 l-25 -103 -101 -52 -101 -52 -13 -97 c-6 -54 -14 -103 -17 -111
-3 -7 -48 -39 -99 -69 l-94 -56 0 -47 c0 -25 -3 -75 -6 -111 l-7 -66 -89 -64
-90 -65 7 -111 6 -111 -33 -28 c-18 -15 -57 -50 -86 -76 l-53 -49 11 -78 c6
-42 13 -91 15 -108 5 -27 -3 -39 -70 -110 -41 -43 -75 -87 -75 -96 0 -9 9 -54
20 -100 23 -98 24 -112 7 -130 -33 -35 -117 -147 -117 -157 0 -6 14 -51 30
-101 17 -50 30 -96 30 -103 0 -7 -20 -42 -45 -79 -39 -59 -45 -74 -45 -121 0
-37 9 -77 29 -126 l30 -71 -30 -56 c-25 -49 -29 -66 -29 -140 0 -74 4 -92 30
-144 l30 -59 -21 -48 c-12 -27 -26 -56 -30 -65 -5 -10 -9 -44 -9 -75 0 -52 5
-64 45 -123 25 -36 45 -71 45 -77 0 -7 -13 -55 -30 -106 -16 -52 -30 -99 -30
-105 0 -5 30 -47 67 -92 l66 -83 -11 -56 c-6 -31 -16 -81 -23 -112 l-12 -55
76 -80 c86 -89 80 -66 55 -228 l-10 -70 48 -44 c27 -24 66 -59 87 -78 l37 -34
-6 -108 -7 -108 90 -66 90 -66 6 -63 c4 -34 7 -85 7 -113 l0 -52 87 -49 c47
-28 92 -55 98 -62 7 -7 18 -57 25 -112 7 -55 18 -105 25 -111 6 -5 52 -30 102
-54 l89 -44 23 -98 c12 -55 24 -104 26 -110 2 -6 43 -25 92 -43 50 -17 97 -37
106 -44 10 -6 32 -57 50 -111 36 -112 17 -96 183 -145 70 -20 71 -21 89 -68
15 -41 62 -142 70 -151 1 -1 44 -11 96 -21 52 -10 101 -22 111 -26 9 -3 35
-43 58 -88 23 -45 46 -87 52 -94 5 -6 41 -14 81 -17 153 -14 141 -8 207 -106
32 -48 66 -90 75 -94 9 -3 61 -6 115 -6 l99 0 54 -64 c30 -36 62 -75 70 -87
14 -20 21 -21 89 -15 40 4 89 9 109 12 34 5 40 1 116 -76 l79 -82 111 18 110
17 29 -22 c16 -12 45 -37 64 -55 73 -67 74 -67 179 -40 52 14 97 27 102 29 4
3 50 -24 101 -60 51 -36 100 -64 108 -61 8 2 56 19 106 37 l92 33 83 -49 c46
-26 92 -53 102 -59 12 -7 20 -8 25 -1 8 12 170 88 186 88 6 0 56 -22 110 -48
64 -31 101 -44 104 -37 2 7 7 12 12 12 5 0 43 20 84 45 42 25 82 45 88 45 6 0
55 -16 108 -36 l98 -36 62 43 c34 24 77 54 94 67 30 21 35 21 77 8 151 -47
159 -48 182 -33 12 8 47 38 77 66 30 28 65 53 76 57 12 3 68 -2 124 -11 l102
-18 77 82 76 81 95 -10 c52 -5 103 -10 112 -10 10 0 47 37 85 85 l68 85 112 0
113 0 61 93 c34 50 62 93 63 95 2 1 53 7 115 14 98 10 113 14 124 33 6 12 29
54 49 93 21 39 42 73 47 76 6 4 203 46 217 46 1 0 9 19 19 43 10 23 31 69 45
102 l27 60 69 19 c158 42 139 28 172 125 16 47 33 95 36 106 4 15 33 31 101
58 53 20 100 37 105 37 4 0 18 40 29 90 32 134 27 127 137 184 l99 51 12 98
c7 54 16 104 21 112 4 8 48 39 97 68 l90 52 5 106 c3 73 10 112 20 124 8 10
49 42 92 72 l76 53 -5 113 -5 112 63 55 c117 101 108 80 91 204 l-14 108 44
47 c24 25 58 62 76 82 l33 36 -24 108 -25 109 32 40 c17 22 37 47 44 54 7 8
24 29 38 48 l26 33 -31 93 c-37 112 -38 122 -8 167 62 94 87 135 87 145 0 6
-10 31 -21 56 -11 25 -29 68 -40 96 l-19 51 51 97 51 97 -52 102 -53 103 30
64 c63 136 63 130 -1 226 -31 46 -56 92 -56 101 0 10 13 59 30 108 16 50 30
95 30 100 0 6 -13 24 -28 40 -15 17 -46 54 -69 84 -45 59 -44 40 -7 199 l17
74 -78 78 -78 78 15 111 15 112 -52 47 c-29 26 -67 60 -85 76 l-32 28 4 110 5
110 -76 55 c-113 82 -111 79 -111 197 l0 101 -89 53 c-49 29 -94 59 -100 66
-6 7 -17 60 -23 116 l-13 104 -101 47 -102 48 -26 108 c-14 59 -32 110 -39
115 -6 4 -51 22 -100 39 -48 17 -91 37 -95 43 -4 6 -21 54 -38 106 l-30 95
-70 22 c-38 12 -87 27 -110 32 -40 11 -42 14 -78 99 -20 49 -42 96 -49 105 -8
11 -44 22 -102 32 -49 9 -98 18 -107 21 -14 4 -56 74 -102 171 -12 24 -33 29
-166 41 l-74 7 -53 80 c-29 44 -58 86 -63 93 -8 8 -45 12 -119 12 -122 0 -106
-9 -201 113 l-45 58 -115 -5 -115 -6 -80 79 -80 79 -108 -19 -109 -19 -81 70
c-45 38 -88 70 -95 70 -7 0 -58 -12 -112 -27 l-99 -26 -85 61 c-46 34 -91 62
-100 62 -9 0 -58 -16 -111 -36 l-95 -35 -96 56 -96 57 -100 -46 c-60 -29 -107
-44 -118 -41 -11 3 -55 24 -100 46 -44 21 -86 39 -93 38 -7 0 -51 -25 -100
-56z m546 -313 c554 -32 1061 -164 1562 -404 495 -238 947 -583 1318 -1006
554 -632 892 -1399 993 -2255 23 -189 26 -679 6 -860 -58 -521 -188 -971 -407
-1413 -574 -1158 -1636 -1971 -2905 -2226 -257 -52 -508 -75 -805 -76 -639 0
-1224 131 -1783 400 -459 222 -791 457 -1147 814 -187 188 -324 349 -463 546
-345 491 -588 1078 -686 1665 -47 282 -51 330 -50 700 0 318 3 379 22 520 123
875 460 1600 1050 2258 257 287 655 606 997 799 705 400 1496 585 2298 538z"/>
<path d="M4168 8520 c-526 -34 -1122 -204 -1598 -458 -1080 -575 -1840 -1594
-2079 -2787 -55 -275 -66 -399 -66 -780 0 -393 7 -481 66 -780 281 -1429 1308
-2592 2699 -3055 658 -219 1400 -263 2080 -124 773 159 1460 523 2019 1069
448 438 757 910 969 1480 185 497 262 959 249 1503 -12 511 -97 935 -279 1392
-487 1225 -1540 2131 -2838 2444 -369 88 -800 122 -1222 96z m1677 -2029 c192
-32 275 -54 425 -111 270 -104 527 -288 714 -512 47 -57 86 -105 86 -108 0 -6
-579 -564 -590 -568 -3 -1 -29 26 -57 61 -131 160 -308 304 -467 377 -269 124
-666 120 -942 -9 -318 -149 -534 -443 -620 -841 -26 -120 -26 -428 -1 -553 99
-488 414 -821 860 -908 122 -24 337 -25 463 -4 96 17 254 65 319 97 126 64
215 135 365 293 52 55 100 100 106 100 7 0 125 -103 265 -230 139 -126 270
-246 292 -265 l40 -36 -75 -89 c-307 -370 -806 -637 -1306 -701 -139 -18 -412
-20 -537 -4 -397 50 -732 187 -1018 417 l-69 55 -46 -53 c-200 -232 -463 -364
-832 -419 -167 -25 -498 -8 -682 35 -154 35 -346 114 -469 190 -124 78 -359
294 -359 330 0 6 26 36 57 65 32 30 101 94 153 144 152 144 273 258 313 296
l37 34 45 -51 c109 -124 281 -232 429 -268 103 -25 281 -22 371 6 163 50 273
165 322 336 14 49 17 141 23 588 5 292 13 564 19 605 87 596 381 1083 840
1391 275 185 588 296 927 329 142 14 461 3 599 -19z m-1511 -129 c-1 -29 -3
-54 -5 -55 -2 -2 -49 -34 -104 -72 -119 -81 -342 -301 -427 -420 -133 -189
-237 -383 -288 -540 -18 -55 -36 -104 -41 -110 -5 -5 -9 261 -9 623 l0 632
437 -2 437 -3 0 -53z"/>
</g>
</svg>
